<?xml version="1.0" encoding="UTF-8"?>
<svg id="Layer_1" data-name="Layer 1" xmlns="http://www.w3.org/2000/svg" xmlns:xlink="http://www.w3.org/1999/xlink" viewBox="0 0 2048 2048">
  <defs>
    <style>
      .cls-1 {
        fill: url(#linear-gradient);
      }
    </style>
    <linearGradient id="linear-gradient" x1="276.64" y1="1024.7" x2="1771.36" y2="1024.7" gradientUnits="userSpaceOnUse">
      <stop offset="0" stop-color="#00ffb2"/>
      <stop offset=".19" stop-color="#13e8c9"/>
      <stop offset=".5" stop-color="#38bdf8"/>
      <stop offset=".63" stop-color="#4ea2f7"/>
      <stop offset="1" stop-color="#8b5cf6"/>
    </linearGradient>
  </defs>
  <path class="cls-1" d="M1480.56,1771.25l-915.03.32c-111.35.04-208-66.5-256.57-164.32-55.61-112-38.79-248.08,50.45-337.4l474.61-475.05c39.73-39.77,42.77-97.06,7.36-137.71-33.83-38.84-99.21-47.53-139.13-7.97l-262.62,260.22c-26.37,26.13-67.59,28.08-101.06,14.8-29.01-11.5-60.21-42.3-60.42-79.71l-1.49-261.27c-.88-154.78,115.96-301.64,277.99-302.2l909.91-3.16c118.92-.41,222.43,59.54,274.75,165.85,55.01,111.75,38.59,247.53-50.72,337.14l-480.79,482.41c-38.09,38.22-31.65,99.98,1.96,134.3,34.22,34.94,95.33,44.4,133.76,6.31l264.84-262.52c26.35-26.12,67.78-28.26,101.05-14.87,29.05,11.69,60.26,42.19,60.47,79.8l1.48,260.61c.92,161.82-122.63,304.35-290.79,304.41ZM792.17,1396.49l604.27-604.28c40.53-40.54,38.55-103.54-.62-140.92-38.54-36.78-98.74-38.35-138.71,1.63l-607.78,607.91c-39.58,39.59-34.42,102.97,2.64,138.35,39.1,37.33,98.47,39.05,140.2-2.68Z"/>
</svg>