<?xml version="1.0" encoding="UTF-8"?>
<svg id="Layer_1" data-name="Layer 1" xmlns="http://www.w3.org/2000/svg" xmlns:xlink="http://www.w3.org/1999/xlink" viewBox="0 0 3535.56 1368.6">
  <defs>
    <style>
      .cls-1 {
        fill: #fff;
      }

      .cls-2 {
        fill: url(#linear-gradient);
      }
    </style>
    <linearGradient id="linear-gradient" x1="1513.45" y1="684.3" x2="1688.57" y2="684.3" gradientUnits="userSpaceOnUse">
      <stop offset="0" stop-color="#00ffb2"/>
      <stop offset=".19" stop-color="#13e8c9"/>
      <stop offset=".5" stop-color="#38bdf8"/>
      <stop offset=".63" stop-color="#4ea2f7"/>
      <stop offset="1" stop-color="#8b5cf6"/>
    </linearGradient>
  </defs>
  <g>
    <path class="cls-1" d="M1209.88,713.3c11.08-5,19.63-12.08,25.63-21.25,6-9.16,9-20.16,9-33,0-19.33-6.63-34.54-19.88-45.63-13.25-11.08-31.54-16.63-54.88-16.63h-71.75v175.01h32.5v-51h39.5c2.33,0,4.61-.06,6.84-.18l35.66,51.18h35l-40.23-57.4c.88-.35,1.75-.72,2.6-1.1ZM1200.88,633.42c7.25,6.09,10.88,14.63,10.88,25.63s-3.63,19.59-10.88,25.75c-7.25,6.17-18.04,9.25-32.38,9.25h-38v-69.75h38c14.33,0,25.13,3.04,32.38,9.13Z"/>
    <polygon class="cls-1" points="1434.02 596.8 1382.49 681.97 1330.76 596.8 1296.26 596.8 1365.01 709.96 1365.01 771.81 1397.26 771.81 1397.26 710.33 1466.02 596.8 1434.02 596.8"/>
    <polygon class="cls-1" points="1773.03 696.3 1857.53 696.3 1857.53 669.55 1773.03 669.55 1773.03 624.3 1868.28 624.3 1868.28 596.8 1740.53 596.8 1740.53 771.81 1871.79 771.81 1871.79 744.3 1773.03 744.3 1773.03 696.3"/>
    <path class="cls-1" d="M2176.42,713.3c11.08-5,19.63-12.08,25.63-21.25,6-9.16,9-20.16,9-33,0-19.33-6.63-34.54-19.88-45.63-13.25-11.08-31.54-16.63-54.88-16.63h-71.75v175.01h32.5v-51h39.5c2.33,0,4.61-.06,6.84-.18l35.66,51.18h35l-40.23-57.4c.88-.35,1.75-.72,2.6-1.1ZM2167.42,633.42c7.25,6.09,10.88,14.63,10.88,25.63s-3.63,19.59-10.88,25.75c-7.25,6.17-18.04,9.25-32.38,9.25h-38v-69.75h38c14.33,0,25.13,3.04,32.38,9.13Z"/>
    <path class="cls-1" d="M2428.56,625.55c-6-9.33-14.54-16.46-25.63-21.38-11.09-4.91-24.38-7.38-39.88-7.38h-72v175.01h32.5v-50.5h39.5c15.5,0,28.79-2.54,39.88-7.63,11.08-5.08,19.63-12.25,25.63-21.5,6-9.25,9-20.29,9-33.13s-3-24.17-9-33.5ZM2393.93,684.68c-7.25,6.09-18.04,9.13-32.38,9.13h-38v-69.5h38c14.33,0,25.13,3.04,32.38,9.13,7.25,6.09,10.88,14.63,10.88,25.63s-3.63,19.54-10.88,25.63Z"/>
  </g>
  <path class="cls-2" d="M1654.5,771.77l-107.2.04c-13.05,0-24.37-7.79-30.06-19.25-6.52-13.12-4.54-29.07,5.91-39.53l55.61-55.66c4.65-4.66,5.01-11.37.86-16.13s-11.62-5.57-16.3-.93l-30.77,30.49c-3.09,3.06-7.92,3.29-11.84,1.73-3.4-1.35-7.05-4.96-7.08-9.34l-.17-30.61c-.1-18.13,13.59-35.34,32.57-35.41l106.6-.37c13.93-.05,26.06,6.98,32.19,19.43,6.44,13.09,4.52,29-5.94,39.5l-56.33,56.52c-4.46,4.48-3.71,11.71.23,15.74,4.01,4.09,11.17,5.2,15.67.74l31.03-30.76c3.09-3.06,7.94-3.31,11.84-1.74,3.4,1.37,7.06,4.94,7.08,9.35l.17,30.53c.11,18.96-14.37,35.66-34.07,35.66ZM1573.85,727.86l70.8-70.8c4.75-4.75,4.52-12.13-.07-16.51-4.52-4.31-11.57-4.49-16.25.19l-71.21,71.22c-4.64,4.64-4.03,12.06.31,16.21,4.58,4.37,11.54,4.57,16.43-.31Z"/>
</svg>